<svg width="32" height="32" viewBox="0 0 32 32" fill="none" xmlns="http://www.w3.org/2000/svg">
<path d="M25 0.5H7C3.41015 0.5 0.5 3.41015 0.5 7V25C0.5 28.5899 3.41015 31.5 7 31.5H25C28.5899 31.5 31.5 28.5899 31.5 25V7C31.5 3.41015 28.5899 0.5 25 0.5Z" fill="white" stroke="#F8F8F8"/>
<path d="M21.9412 15.3667L21.9418 15.3651C22.1399 14.8512 22.2333 14.3625 22.2333 13.9084V13.9064C22.2347 13.4204 22.1365 12.9487 21.943 12.5022C21.7561 12.0729 21.4865 11.6835 21.149 11.356C20.8101 11.0264 20.4097 10.7636 19.9705 10.5833C19.5148 10.3955 19.0249 10.2989 18.5311 10.3H18.5295C17.8346 10.3 17.1584 10.4887 16.5717 10.8438C16.4313 10.9287 16.2985 11.0218 16.173 11.1228L15.7341 11.476L15.2953 11.1228C15.1698 11.0218 15.037 10.9288 14.8966 10.8439C14.3099 10.4888 13.6337 10.3 12.9388 10.3C12.4373 10.3 11.9546 10.395 11.4987 10.5829C11.0577 10.7641 10.6606 11.0243 10.3197 11.3556L10.3187 11.3566C9.98112 11.6834 9.71175 12.0725 9.52558 12.5016C9.33188 12.9482 9.23334 13.4208 9.23334 13.9084C9.23334 14.3624 9.32687 14.8513 9.52487 15.3651M21.9412 15.3667C21.7771 15.7954 21.5328 16.2542 21.2114 16.7303M21.9412 15.3667L21.2114 16.7303M12.3799 19.1131C13.129 19.7995 13.8773 20.3822 14.4475 20.7988C14.732 21.0066 14.9709 21.1721 15.1415 21.2873C15.2268 21.345 15.2948 21.3899 15.3428 21.4212C15.3857 21.4492 15.4091 21.464 15.4144 21.4673L15.4155 21.468L15.4266 21.4748L15.7333 21.6701L16.0401 21.4749C16.0913 21.4424 17.5824 20.49 19.087 19.1129M12.3799 19.1131C11.4753 18.2845 10.7634 17.4818 10.255 16.7299M12.3799 19.1131L10.255 16.7299M19.087 19.1129C19.9913 18.2845 20.7031 17.482 21.2114 16.7303M19.087 19.1129L21.2114 16.7303M10.255 16.7299C9.93468 16.2553 9.69125 15.796 9.52487 15.3651M10.255 16.7299L9.52487 15.3651" stroke="#ECECEC" stroke-width="1.4"/>
</svg>
